<svg width="31" height="34" viewBox="0 0 31 34" fill="none" xmlns="http://www.w3.org/2000/svg">
<path fill-rule="evenodd" clip-rule="evenodd" d="M30.414 12.4815C30.4461 13.7568 30.4647 15.1658 30.4647 16.7186C30.4647 22.7443 30.1846 26.606 29.925 28.8923C29.6803 31.0465 28.0437 32.6732 25.8977 32.9235C23.7586 33.1731 20.2989 33.4371 15.2323 33.4371C10.1658 33.4371 6.70605 33.1731 4.567 32.9235C2.42099 32.6732 0.78435 31.0465 0.53971 28.8923C0.280061 26.606 0 22.7443 0 16.7186C0 10.6928 0.280061 6.83103 0.53971 4.54476C0.78435 2.39063 2.42099 0.763864 4.567 0.513503C6.70605 0.263952 10.1658 0 15.2323 0C16.2051 0 17.1186 0.0097339 17.9749 0.0272177C17.973 0.578051 17.9731 1.28401 17.9795 2.05576C17.994 3.81161 18.0412 5.95669 18.1775 7.37917C18.4258 9.96749 20.428 12.0203 23.0026 12.2674C24.4237 12.4037 26.5855 12.4545 28.3586 12.4726C29.1406 12.4805 29.8563 12.4822 30.414 12.4815ZM12.2602 24.892C12.2602 25.7127 12.9255 26.3781 13.7463 26.3781H21.9198C22.7406 26.3781 23.4059 25.7127 23.4059 24.892C23.4059 24.0712 22.7406 23.4059 21.9198 23.4059H13.7463C12.9255 23.4059 12.2602 24.0712 12.2602 24.892ZM13.7463 19.6907C12.9255 19.6907 12.2602 19.0253 12.2602 18.2046C12.2602 17.3838 12.9255 16.7185 13.7463 16.7185H18.9476C19.7684 16.7185 20.4337 17.3838 20.4337 18.2046C20.4337 19.0253 19.7684 19.6907 18.9476 19.6907H13.7463ZM7.05892 24.892C7.05892 25.7127 7.72424 26.3781 8.54501 26.3781H9.28805C10.1088 26.3781 10.7741 25.7127 10.7741 24.892C10.7741 24.0712 10.1088 23.4059 9.28805 23.4059H8.54501C7.72424 23.4059 7.05892 24.0712 7.05892 24.892ZM8.54501 19.6907C7.72424 19.6907 7.05892 19.0253 7.05892 18.2046C7.05892 17.3838 7.72424 16.7185 8.54501 16.7185H9.28805C10.1088 16.7185 10.7741 17.3838 10.7741 18.2046C10.7741 19.0253 10.1088 19.6907 9.28805 19.6907H8.54501Z" fill="#CE47FF"/>
<path d="M20.3964 7.16642C20.2705 5.85284 20.223 3.79773 20.2085 2.0374C20.2033 1.41648 20.2023 0.838285 20.2031 0.350952C21.3228 0.822696 23.3123 1.92687 25.8964 4.44699C28.6825 7.16412 29.7846 9.21076 30.2056 10.2526C29.6888 10.2526 29.0601 10.2505 28.3812 10.2436C26.603 10.2255 24.5297 10.1746 23.2154 10.0485C21.7337 9.90632 20.5456 8.72228 20.3964 7.16642Z" fill="#CE47FF"/>
</svg>
